<svg width="572" height="124" viewBox="0 0 572 124" fill="none" xmlns="http://www.w3.org/2000/svg">
<rect width="572" height="124" rx="62" fill="white"/>
<rect x="143" width="429" height="124" rx="62" fill="#FDB314"/>
<circle cx="70.5" cy="61.5" r="53.5" fill="black"/>
<path d="M201.666 92V31.8438H225.729V43.4648H213.902V55.1885H225.25V66.502H213.902V80.2764H226.515V92H201.666ZM232.614 92V38.6797H249.191C253.52 38.6797 256.767 39.8874 258.932 42.3027C261.12 44.6953 262.213 48.2044 262.213 52.8301V74.1582C262.213 79.8548 261.222 84.2526 259.24 87.3516C257.257 90.4505 253.771 92 248.781 92H232.614ZM244.713 81.3701H246.798C249.009 81.3701 250.114 80.2992 250.114 78.1572V53.958C250.114 51.9528 249.84 50.6654 249.293 50.0957C248.769 49.5033 247.687 49.207 246.046 49.207H244.713V81.3701ZM283.146 92.5469C278.133 92.5469 274.442 91.1455 272.072 88.3428C269.702 85.5173 268.517 81.3701 268.517 75.9014V38.6797H280.207V75.7646C280.207 76.7673 280.264 77.7357 280.378 78.6699C280.492 79.5814 280.754 80.3333 281.164 80.9258C281.574 81.5182 282.235 81.8145 283.146 81.8145C284.081 81.8145 284.753 81.5296 285.163 80.96C285.573 80.3675 285.824 79.6042 285.915 78.6699C286.029 77.7357 286.086 76.7673 286.086 75.7646V38.6797H297.775V75.9014C297.775 81.3701 296.59 85.5173 294.221 88.3428C291.851 91.1455 288.159 92.5469 283.146 92.5469ZM318.503 92.5469C314.151 92.5469 310.642 91.1911 307.976 88.4795C305.333 85.7679 304.011 81.974 304.011 77.0977V56.1797C304.011 50.3464 305.162 45.8802 307.463 42.7812C309.787 39.6823 313.558 38.1328 318.777 38.1328C321.625 38.1328 324.154 38.6569 326.364 39.7051C328.598 40.7533 330.352 42.3255 331.628 44.4219C332.904 46.4954 333.542 49.1159 333.542 52.2832V61.8535H321.579V53.4453C321.579 51.6452 321.351 50.4375 320.896 49.8223C320.44 49.1842 319.734 48.8652 318.777 48.8652C317.66 48.8652 316.908 49.2754 316.521 50.0957C316.133 50.8932 315.94 51.9642 315.94 53.3086V77.2686C315.94 78.932 316.179 80.1055 316.657 80.7891C317.159 81.4727 317.865 81.8145 318.777 81.8145C319.802 81.8145 320.52 81.3929 320.93 80.5498C321.363 79.7067 321.579 78.613 321.579 77.2686V69.5098H333.679V77.4736C333.679 82.7601 332.346 86.5996 329.68 88.9922C327.014 91.362 323.288 92.5469 318.503 92.5469ZM338.171 92L343.982 38.6797H364.387L370.095 92H358.713L357.927 82.293H350.545L349.861 92H338.171ZM353.757 48.25L351.536 72.6885H356.799L354.304 48.25H353.757ZM379.749 92V50.2324H372.605V38.6797H398.924V50.2324H391.78V92H379.749ZM403.827 92V38.6797H415.448V92H403.827ZM436.688 92.5469C431.766 92.5469 428.064 91.0658 425.58 88.1035C423.096 85.1185 421.854 80.9486 421.854 75.5938V53.8555C421.854 48.6829 423.119 44.7751 425.648 42.1318C428.2 39.4658 431.88 38.1328 436.688 38.1328C441.519 38.1328 445.199 39.4658 447.728 42.1318C450.258 44.7751 451.522 48.6829 451.522 53.8555V75.5938C451.522 80.9486 450.28 85.1185 447.797 88.1035C445.313 91.0658 441.61 92.5469 436.688 92.5469ZM436.791 81.8145C437.93 81.8145 438.671 81.3018 439.012 80.2764C439.354 79.2282 439.525 77.9749 439.525 76.5166V53.3086C439.525 52.2376 439.377 51.235 439.081 50.3008C438.785 49.3438 438.044 48.8652 436.859 48.8652C435.697 48.8652 434.9 49.3096 434.467 50.1982C434.056 51.0641 433.851 52.1351 433.851 53.4111V76.585C433.851 78.1572 434.034 79.4219 434.398 80.3789C434.763 81.3359 435.56 81.8145 436.791 81.8145ZM458.476 92V38.6797H470.849L477.07 67.5957V38.6797H488.007V92H476.249L469.55 63.1182V92H458.476Z" fill="black"/>
</svg>
